<?xml version="1.0" encoding="UTF-8"?>
<!-- Generated by Pixelmator Pro 3.0 -->
<svg width="129" height="126" viewBox="0 0 129 126" xmlns="http://www.w3.org/2000/svg" xmlns:xlink="http://www.w3.org/1999/xlink">
    <path id="Path" fill="#000000" stroke="none" d="M 105.699997 121.599998 C 104.800003 121.000008 104 120.099998 103.5 119.000008 L 77.199997 60.300003 C 76.100006 57.900002 75.300003 56 74.600006 54.5 C 73.5 52.300003 73.5 51.699997 73.5 51.300003 C 73.5 50.199997 73.899994 49.400002 74.800003 48.900002 L 74.800003 46.699997 L 53.199997 46.699997 L 53.199997 48.900002 C 53.599998 49.099998 53.800003 49.5 54.099998 49.800003 C 54.300003 50.199997 54.5 50.699997 54.5 51.300003 C 54.5 51.900002 54.300003 52.800003 53.599998 54.099998 C 53 55.400002 52.300003 56.900002 51.400002 58.800003 L 25.5 117.299995 C 25.099998 118.200005 24.400002 119.500008 23.599998 121.000008 C 22.699997 122.500008 21.199997 123.200005 19.5 123.400002 L 19.5 125.299995 L 44.300003 125.299995 L 44.300003 123.400002 C 41.5 123.400002 40.199997 122.299995 40.199997 120.599998 C 40.199997 119.700005 40.599998 118.200005 41.699997 116.099998 C 42.599998 114.400002 43.599998 112.200005 44.5 110.099998 C 56.800003 114.800003 70.600006 115.099998 82.899994 110.5 C 84 112.700005 84.800003 114.599998 85.5 116.099998 C 86.399994 117.799995 86.800003 119.299995 86.800003 120.400002 C 86.800003 121.500008 86.399994 122.299995 85.699997 122.799995 C 85.100006 123.000008 84.600006 123.200005 84 123.400002 L 84 125.299995 L 109.199997 125.299995 L 109.199997 123.400002 C 107.800003 122.500008 106.5 122.000008 105.699997 121.599998 Z M 50 98.099998 L 63.800003 67.400002 L 77.800003 98.5 C 68.800003 101.5 59.099998 101.5 50 98.099998 Z"/>
    <path id="path1" fill="#939598" stroke="none" d="M 15.5 65.099998 C 15.5 60.599998 16.099998 56.300003 17.199997 51.900002 L 3.200001 45.599998 C 1.299999 51.599998 0.200001 57.900002 0.200001 64.400002 C 0.200001 81.900002 7.300003 98.700005 20.099998 110.800003 L 21 109.099998 L 26.599998 96.400002 C 19.800003 87.700005 15.5 76.900002 15.5 65.099998 Z"/>
    <path id="path2" fill="#f79421" stroke="none" d="M 125.699997 45.900002 L 111.699997 52.199997 C 112.800003 56.300003 113.399994 60.599998 113.399994 65.099998 C 113.399994 77 109.100006 88 102 96.400002 L 107.800003 109.099998 L 108.699997 110.800003 C 121.399994 98.700005 128.600006 81.900002 128.600006 64.400002 C 128.5 58.200005 127.5 51.900002 125.699997 45.900002 Z"/>
    <path id="path3" fill="#1e95d3" stroke="none" d="M 6.199997 38.099998 L 20 44.400002 C 27.300003 28.900002 42.400002 17.900002 60.099998 16.300003 L 60.099998 1 C 37.099998 2.300003 15.900002 16.699997 6.199997 38.099998 Z"/>
    <path id="path4" fill="#6fb544" stroke="none" d="M 122.699997 38.099998 C 113 16.699997 91.800003 2.300003 68.5 0.800003 L 68.5 16.099998 C 86.399994 17.599998 101.5 28.599998 108.800003 44.199997 L 122.699997 38.099998 Z"/>
</svg>
